<svg xmlns:svg="http://www.w3.org/2000/svg" xmlns="http://www.w3.org/2000/svg"
    preserveAspectRatio="xMinYMin meet" height="15" width="15" viewBox="150 150 600 600">
    <g class="layer">
        <title>Layer 1</title>
        <path
            d="m358.37,674.63c-13.33,-12 -17.38,-27.11 -18.03,-44.17c-1.07,-27.85 6.81,-53.97 13.9,-80.31c7.78,-28.91 15.9,-57.73 23.45,-86.7c4.09,-15.7 6.2,-31.73 3.4,-47.97c-1.8,-10.44 -9.38,-17.51 -19.98,-18.65c-17.63,-1.91 -34.9,-0.54 -51.48,6.34c-1.63,0.67 -3.34,1.18 -5.81,2.04c2.55,-10.14 4.86,-19.61 7.4,-29.02c0.26,-0.97 1.72,-1.94 2.83,-2.32c21.99,-7.62 43.59,-16.9 66.13,-22.23c25.12,-5.94 51,-6.13 75.39,5.18c24.54,11.37 37.04,31.16 38.37,57.86c1.17,23.58 -4.37,46.28 -10.45,68.81c-8.89,32.93 -18.14,65.75 -26.84,98.72c-4.19,15.84 -6.13,31.99 -3.83,48.46c1.34,9.57 6.58,15.22 15.75,17.7c17.89,4.82 35.31,2.27 52.59,-3.07c3.17,-0.98 6.32,-2 10.7,-3.39c-1.69,6.03 -3.62,11.15 -4.5,16.44c-1.87,11.24 -8.72,16.77 -19.22,19.97c-16.69,5.1 -32.74,12.66 -49.68,16.47c-26.62,5.99 -53.66,6.42 -79.22,-5.31c-7.52,-3.46 -13.78,-9.66 -20.87,-14.85z"
            fill="currentColor       " id="svg_1" />
        <path
            d="m457.33,169.93c25.37,-4.23 47.26,2.07 64.58,20.58c19.84,21.23 20.2,53.89 2.51,75.96c-29.24,36.46 -86.7,30.46 -110.38,-6.23c-10.9,-16.88 -13.37,-50.34 9.66,-72.1c9.57,-9.05 20.24,-15.57 33.63,-18.21z"
            fill="currentColor" id="info" />
    </g>
</svg>