<svg viewBox="0 0 80 80" fill="none" role="img" xmlns="http://www.w3.org/2000/svg" width="128" height="128"><mask id=":r183:" mask-type="alpha" maskUnits="userSpaceOnUse" x="0" y="0" width="80" height="80"><rect width="80" height="80" fill="#FFFFFF"></rect></mask><g mask="url(#:r183:)"><rect width="10" height="10" fill="#f2eabc"></rect><rect x="20" width="10" height="10" fill="#54736e"></rect><rect x="40" width="10" height="10" fill="#54736e"></rect><rect x="60" width="10" height="10" fill="#54736e"></rect><rect x="10" width="10" height="10" fill="#54736e"></rect><rect x="30" width="10" height="10" fill="#54736e"></rect><rect x="50" width="10" height="10" fill="#080000"></rect><rect x="70" width="10" height="10" fill="#54736e"></rect><rect y="10" width="10" height="10" fill="#194756"></rect><rect y="20" width="10" height="10" fill="#54736e"></rect><rect y="30" width="10" height="10" fill="#54736e"></rect><rect y="40" width="10" height="10" fill="#54736e"></rect><rect y="50" width="10" height="10" fill="#f2eabc"></rect><rect y="60" width="10" height="10" fill="#080000"></rect><rect y="70" width="10" height="10" fill="#54736e"></rect><rect x="20" y="10" width="10" height="10" fill="#54736e"></rect><rect x="20" y="20" width="10" height="10" fill="#54736e"></rect><rect x="20" y="30" width="10" height="10" fill="#194756"></rect><rect x="20" y="40" width="10" height="10" fill="#080000"></rect><rect x="20" y="50" width="10" height="10" fill="#54736e"></rect><rect x="20" y="60" width="10" height="10" fill="#f2eabc"></rect><rect x="20" y="70" width="10" height="10" fill="#54736e"></rect><rect x="40" y="10" width="10" height="10" fill="#f2eabc"></rect><rect x="40" y="20" width="10" height="10" fill="#54736e"></rect><rect x="40" y="30" width="10" height="10" fill="#54736e"></rect><rect x="40" y="40" width="10" height="10" fill="#080000"></rect><rect x="40" y="50" width="10" height="10" fill="#f2eabc"></rect><rect x="40" y="60" width="10" height="10" fill="#194756"></rect><rect x="40" y="70" width="10" height="10" fill="#ff3b58"></rect><rect x="60" y="10" width="10" height="10" fill="#54736e"></rect><rect x="60" y="20" width="10" height="10" fill="#194756"></rect><rect x="60" y="30" width="10" height="10" fill="#54736e"></rect><rect x="60" y="40" width="10" height="10" fill="#54736e"></rect><rect x="60" y="50" width="10" height="10" fill="#54736e"></rect><rect x="60" y="60" width="10" height="10" fill="#54736e"></rect><rect x="60" y="70" width="10" height="10" fill="#f2eabc"></rect><rect x="10" y="10" width="10" height="10" fill="#54736e"></rect><rect x="10" y="20" width="10" height="10" fill="#194756"></rect><rect x="10" y="30" width="10" height="10" fill="#080000"></rect><rect x="10" y="40" width="10" height="10" fill="#54736e"></rect><rect x="10" y="50" width="10" height="10" fill="#54736e"></rect><rect x="10" y="60" width="10" height="10" fill="#54736e"></rect><rect x="10" y="70" width="10" height="10" fill="#194756"></rect><rect x="30" y="10" width="10" height="10" fill="#54736e"></rect><rect x="30" y="20" width="10" height="10" fill="#54736e"></rect><rect x="30" y="30" width="10" height="10" fill="#080000"></rect><rect x="30" y="40" width="10" height="10" fill="#080000"></rect><rect x="30" y="50" width="10" height="10" fill="#54736e"></rect><rect x="30" y="60" width="10" height="10" fill="#080000"></rect><rect x="30" y="70" width="10" height="10" fill="#54736e"></rect><rect x="50" y="10" width="10" height="10" fill="#54736e"></rect><rect x="50" y="20" width="10" height="10" fill="#080000"></rect><rect x="50" y="30" width="10" height="10" fill="#f2eabc"></rect><rect x="50" y="40" width="10" height="10" fill="#f2eabc"></rect><rect x="50" y="50" width="10" height="10" fill="#54736e"></rect><rect x="50" y="60" width="10" height="10" fill="#194756"></rect><rect x="50" y="70" width="10" height="10" fill="#54736e"></rect><rect x="70" y="10" width="10" height="10" fill="#080000"></rect><rect x="70" y="20" width="10" height="10" fill="#54736e"></rect><rect x="70" y="30" width="10" height="10" fill="#54736e"></rect><rect x="70" y="40" width="10" height="10" fill="#080000"></rect><rect x="70" y="50" width="10" height="10" fill="#194756"></rect><rect x="70" y="60" width="10" height="10" fill="#194756"></rect><rect x="70" y="70" width="10" height="10" fill="#54736e"></rect></g></svg>