
<svg xmlns="http://www.w3.org/2000/svg" xmlns:xlink="http://www.w3.org/1999/xlink" version="1.1" id="Layer_1" x="0px" y="0px" width="2%" viewBox="0 0 310 345" enable-background="new 0 0 310 345" xml:space="preserve" height="1%">
<path fill="#00000000" opacity="1.000000" stroke="none" d=" M202.000000,346.000000   C134.666672,346.000000 67.833359,346.000000 1.000027,346.000000   C1.000018,231.000031 1.000018,116.000069 1.000009,1.000073   C104.333282,1.000049 207.666565,1.000049 310.999878,1.000024   C310.999939,115.999931 310.999939,230.999863 310.999969,345.999878   C274.833344,346.000000 238.666672,346.000000 202.000000,346.000000  M171.359665,130.011566   C169.348969,128.678970 167.407333,127.225029 165.315720,126.034622   C155.855011,120.650253 145.242981,119.314743 134.794601,119.256538   C126.648254,119.211151 118.298325,120.962448 110.381020,123.152313   C99.981766,126.028648 89.818314,129.868484 79.783806,133.871384   C77.394875,134.824387 75.581467,137.870193 74.140335,140.327042   C73.131668,142.046616 73.029388,144.386108 72.847893,146.477005   C72.676872,148.447220 72.188263,151.466370 73.182228,152.196838   C74.514389,153.175888 77.171288,152.622040 79.202789,152.331039   C86.275200,151.317978 93.295052,149.475723 100.387177,149.172668   C110.595085,148.736450 114.937149,152.137344 116.850128,162.205582   C117.888054,167.668259 118.071594,173.777603 116.740257,179.121887   C111.103645,201.748337 104.832161,224.218704 98.637833,246.703430   C94.516747,261.662567 91.231812,276.643677 92.926773,292.360565   C94.421837,306.223999 101.669762,316.061798 113.726166,322.173248   C129.879578,330.361511 147.245773,329.850616 164.187241,326.070770   C175.912323,323.454742 187.076813,318.286591 198.432892,314.099091   C200.132324,313.472473 202.384705,312.266663 202.875336,310.818542   C204.549271,305.877930 205.550461,300.709412 207.073502,294.556824   C203.505203,295.098450 201.613022,295.388153 199.720032,295.672516   C192.333908,296.782227 184.872253,299.151520 177.578171,298.716064   C165.309921,297.983551 160.622391,295.001007 160.097412,281.176422   C159.930237,276.774200 160.087921,272.175751 161.169846,267.941223   C166.344376,247.688644 171.656921,227.464676 177.375351,207.359924   C181.634216,192.386749 185.229584,177.521790 185.264603,161.696808   C185.292892,148.904648 180.396744,139.142563 171.359665,130.011566  M193.339142,19.052202   C191.686935,18.062714 190.146774,16.748480 188.365250,16.133808   C169.883240,9.757031 153.442047,12.106453 139.873688,27.537983   C132.186264,36.281029 129.766373,46.979393 132.419449,57.416859   C138.554367,81.552246 158.632660,90.021126 180.276779,86.645943   C197.343781,83.984505 212.759171,68.747589 211.159546,48.103035   C210.169235,35.322090 204.202255,26.308588 193.339142,19.052202  z"/>
<path fill="#BCB4A6" opacity="1.000000" stroke="none" d=" M171.667557,130.212616   C180.396744,139.142563 185.292892,148.904648 185.264603,161.696808   C185.229584,177.521790 181.634216,192.386749 177.375351,207.359924   C171.656921,227.464676 166.344376,247.688644 161.169846,267.941223   C160.087921,272.175751 159.930237,276.774200 160.097412,281.176422   C160.622391,295.001007 165.309921,297.983551 177.578171,298.716064   C184.872253,299.151520 192.333908,296.782227 199.720032,295.672516   C201.613022,295.388153 203.505203,295.098450 207.073502,294.556824   C205.550461,300.709412 204.549271,305.877930 202.875336,310.818542   C202.384705,312.266663 200.132324,313.472473 198.432892,314.099091   C187.076813,318.286591 175.912323,323.454742 164.187241,326.070770   C147.245773,329.850616 129.879578,330.361511 113.726166,322.173248   C101.669762,316.061798 94.421837,306.223999 92.926773,292.360565   C91.231812,276.643677 94.516747,261.662567 98.637833,246.703430   C104.832161,224.218704 111.103645,201.748337 116.740257,179.121887   C118.071594,173.777603 117.888054,167.668259 116.850128,162.205582   C114.937149,152.137344 110.595085,148.736450 100.387177,149.172668   C93.295052,149.475723 86.275200,151.317978 79.202789,152.331039   C77.171288,152.622040 74.514389,153.175888 73.182228,152.196838   C72.188263,151.466370 72.676872,148.447220 72.847893,146.477005   C73.029388,144.386108 73.131668,142.046616 74.140335,140.327042   C75.581467,137.870193 77.394875,134.824387 79.783806,133.871384   C89.818314,129.868484 99.981766,126.028648 110.381020,123.152313   C118.298325,120.962448 126.648254,119.211151 134.794601,119.256538   C145.242981,119.314743 155.855011,120.650253 165.315720,126.034622   C167.407333,127.225029 169.348969,128.678970 171.667557,130.212616  z"/>
<path fill="#BCB4A6" opacity="1.000000" stroke="none" d=" M193.655090,19.259270   C204.202255,26.308588 210.169235,35.322090 211.159546,48.103035   C212.759171,68.747589 197.343781,83.984505 180.276779,86.645943   C158.632660,90.021126 138.554367,81.552246 132.419449,57.416859   C129.766373,46.979393 132.186264,36.281029 139.873688,27.537983   C153.442047,12.106453 169.883240,9.757031 188.365250,16.133808   C190.146774,16.748480 191.686935,18.062714 193.655090,19.259270  z"/>
</svg>
