<svg xmlns="http://www.w3.org/2000/svg" id="Layer_1" data-name="Layer 1" viewBox="0 0 3000 2000">
    <defs>
        <style>
            .cls-1{fill:#66ccfe;}.cls-2{fill:#393;}.cls-3{fill:#fefefe;}.cls-4{fill:#0b0c0c;}.cls-5{fill:#0f1113;}.cls-6{fill:#030405;}.cls-7{fill:#fdfdfd;}.cls-8{fill:#0033ca;}.cls-9{fill:#ca6500;}.cls-10{fill:#b1e3fc;}.cls-11{fill:#a2d4f2;}.cls-12{fill:#f79400;}.cls-13{fill:#fbfbfb;}.cls-14{fill:#fcfc00;}.cls-15{fill:#cb0000;}</style>
    </defs>
    <path xmlns="http://www.w3.org/2000/svg" class="cls-15"
        d="M1272.35,735.2c0-10,.59-20-.2-30-.53-6.72,2.08-11.45,5.84-16.28,9.47-12.19,20.62-22.65,32.73-32.12,36.33-28.43,77.28-45,123.42-49.27,33.84-3.17,67.62-5.59,101.64-5.29,53.57.47,100.88,18.26,144,49.27,16.93,12.18,29.44,25.89,26.6,48.49a631.34,631.34,0,0,1,5.26,98.62c-1.46,51.79-8.18,102.74-22.22,152.71-11.49,40.94-32.51,76.53-60.25,108.19-16.45,18.78-33.53,37.27-53.68,52.16-32.16,23.76-68.06,32-107.65,23.53-41.74-8.93-76-30.76-107-59.14-40.37-36.91-60.78-84.3-72.63-136.1-6.31-27.59-8.38-55.91-10.46-84.13C1274.77,815.7,1272.54,775.49,1272.35,735.2ZM1499.8,927.91c13.06.48,26-.92,38.91-2.37a101.2,101.2,0,0,0,44.77-16c9.23-6.07,13.25-14.51,12.58-25.48a49.42,49.42,0,0,0-3.25-14.56c-9.16-24.31-25.64-42.43-49.34-52.37-34.13-14.32-68.7-14.34-102.54,2-8.17,4-15.58,9.17-21.29,16.29a162.45,162.45,0,0,0-21.85,35.7c-5.93,13.34-1.33,26.94,10.91,34.9,2.51,1.63,5.23,2.94,7.88,4.34C1442.66,924.18,1471,927.31,1499.8,927.91Zm-5.46,124.1a129.51,129.51,0,0,0,28.84-2.18c12.84-2.35,25.29-5.91,35.94-14,12.48-9.49,17-26.42,0-38.23-29.41-20.49-61.73-29.41-97.32-23.17a59.51,59.51,0,0,0-37.66,22.74c-9.25,12-9,25.92.62,37.53,6,7.25,13.9,11.33,22.91,13.23C1463.07,1051.16,1478.73,1051.37,1494.34,1052ZM1492,754.37c15.84,1.07,31.56-2.86,47-8.43a39,39,0,0,0,12-7c8.08-6.81,10.47-15.32,6.75-25-4-10.4-10-19.49-18.81-26.55-14.74-11.82-31-17.17-50.15-13.79-21.24,3.75-41.35,8.81-56.72,25.91-12.9,14.35-12.38,29,3,40.7a57.19,57.19,0,0,0,20.66,9.61C1467.33,752.81,1479.11,754.8,1492,754.37Z" />
</svg>