<svg xmlns="http://www.w3.org/2000/svg" version="1.1" viewBox="-5.0 -10.0 110.0 135.0">
 <g>
  <path d="m66.879 48.422v30.699c0 0.35938 0.28906 0.64844 0.64844 0.64844h4.8398c0.35937 0 0.64844-0.28906 0.64844-0.64844v-30.699c0-1.75-1.3711-3.1797-3.0703-3.1797-1.6992 0-3.0781 1.4297-3.0781 3.1797z"/>
  <path d="m89.031 79.77h1.7695c0.35938 0 0.64844-0.28906 0.64844-0.64844v-38.359c0-0.35938-0.28906-0.64844-0.64844-0.64844l-81.602-0.003906c-0.35938 0-0.64844 0.28906-0.64844 0.64844v38.359c0 0.35937 0.28906 0.64844 0.64844 0.64844h1.7695c0.35938 0 0.64844-0.28906 0.64844-0.64844v-30.699c0-2.9102 2.3008-5.2891 5.1211-5.2891 2.8203 0 5.1211 2.3789 5.1211 5.2891v30.699c0 0.35937 0.28906 0.64844 0.64844 0.64844h1.7695c0.35938 0 0.64844-0.28906 0.64844-0.64844v-30.699c0-2.9102 2.2891-5.2891 5.1211-5.2891 2.8281 0 5.1289 2.3789 5.1289 5.2891v30.699c0 0.35937 0.28906 0.64844 0.64844 0.64844h1.7617c0.35937 0 0.64844-0.28906 0.64844-0.64844v-30.699c0-2.9102 2.3008-5.2891 5.1211-5.2891 2.8203 0 5.1211 2.3789 5.1211 5.2891v30.699c0 0.35937 0.28906 0.64844 0.64844 0.64844h1.7812c0.35938 0 0.64844-0.28906 0.64844-0.64844v-30.699c0-2.9102 2.2891-5.2891 5.1211-5.2891 2.8281 0 5.1211 2.3789 5.1211 5.2891v30.699c0 0.35937 0.28906 0.64844 0.64844 0.64844h1.7617c0.35938 0 0.64844-0.28906 0.64844-0.64844v-30.699c0-2.9102 2.3086-5.2891 5.1289-5.2891s5.1211 2.3789 5.1211 5.2891v30.699c0 0.35937 0.28906 0.64844 0.64844 0.64844h1.7695c0.35937 0 0.64844-0.28906 0.64844-0.64844v-30.699c0-2.9102 2.2891-5.2891 5.1211-5.2891 2.8281 0 5.1211 2.3789 5.1211 5.2891v30.699c0 0.35937 0.28906 0.64844 0.64844 0.64844z"/>
  <path d="m53.578 48.422v30.699c0 0.35938 0.28906 0.64844 0.64844 0.64844h4.8398c0.35938 0 0.64844-0.28906 0.64844-0.64844v-30.699c0-1.75-1.3789-3.1797-3.0703-3.1797-1.6914 0-3.0781 1.4297-3.0781 3.1797z"/>
  <path d="m40.281 48.422v30.699c0 0.35938 0.28906 0.64844 0.64844 0.64844h4.8398c0.35938 0 0.64844-0.28906 0.64844-0.64844v-30.699c0-1.75-1.3711-3.1797-3.0781-3.1797-1.7109 0-3.0703 1.4297-3.0703 3.1797z"/>
  <path d="m93.871 36.91c0.089844-0.5-0.03125-1.1797-0.73828-1.5195l-42.594-20.27c-0.35156-0.16016-0.75-0.16016-1.0898 0l-42.578 20.27c-0.71094 0.33984-0.83984 1.0195-0.73828 1.5195 0.12109 0.51953 0.5 1.0703 1.2891 1.0703h85.168c0.78125 0 1.1719-0.55078 1.2891-1.0703zm-20.73-4.8984c-0.35156 1.6484-1.6602 2.7617-3.2891 2.7617l-39.703-0.003907c-1.6211 0-2.9414-1.1094-3.2891-2.7617-0.32812-1.6484 0.44141-3.2109 1.9297-3.8984l19.852-9.1016c0.87109-0.37891 1.8516-0.37891 2.7188 0l19.852 9.1016c1.4883 0.69141 2.2617 2.25 1.9297 3.8984z"/>
  <path d="m70.391 30.059-19.852-9.1016c-0.32812-0.14844-0.73047-0.14844-1.0703 0l-19.852 9.1016c-0.71094 0.32812-0.85938 1-0.73828 1.5312 0.10156 0.51172 0.5 1.0703 1.2812 1.0703h39.711c0.76953 0 1.1719-0.55859 1.2812-1.0703 0.12109-0.51953-0.03125-1.1992-0.73828-1.5312z"/>
  <path d="m26.969 48.422v30.699c0 0.35938 0.28906 0.64844 0.64844 0.64844h4.8398c0.35938 0 0.64844-0.28906 0.64844-0.64844v-30.699c0-1.75-1.3789-3.1797-3.0781-3.1797-1.6992 0-3.0703 1.4297-3.0703 3.1797z"/>
  <path d="m13.66 48.422v30.699c0 0.35938 0.28906 0.64844 0.64844 0.64844h4.8398c0.35937 0 0.64844-0.28906 0.64844-0.64844v-30.699c0-1.75-1.3711-3.1797-3.0703-3.1797-1.6992 0-3.0781 1.4297-3.0781 3.1797z"/>
  <path d="m93.461 81.91h-86.922c-0.30078 0-0.53906 0.25-0.53906 0.57812v1.9219c0 0.32031 0.23828 0.58984 0.53906 0.58984h86.922c0.30078 0 0.53906-0.26953 0.53906-0.58984v-1.9219c0-0.32812-0.23828-0.57812-0.53906-0.57812z"/>
  <path d="m80.199 48.422v30.699c0 0.35938 0.28906 0.64844 0.64844 0.64844h4.8398c0.35938 0 0.64844-0.28906 0.64844-0.64844v-30.699c0-1.75-1.3789-3.1797-3.0781-3.1797-1.6992 0-3.0703 1.4297-3.0703 3.1797z"/>
 </g>
<text x="0.0" y="117.5" font-size="5.0" font-weight="bold" font-family="Arbeit Regular, Helvetica, Arial-Unicode, Arial, Sans-serif" fill="#000000">Created by Olifernes Tejeros</text><text x="0.0" y="122.5" font-size="5.0" font-weight="bold" font-family="Arbeit Regular, Helvetica, Arial-Unicode, Arial, Sans-serif" fill="#000000">from Noun Project</text></svg>